<?xml version="1.0" encoding="UTF-8"?>
<svg width="255px" height="31px" viewBox="0 0 255 31" version="1.1" xmlns="http://www.w3.org/2000/svg" xmlns:xlink="http://www.w3.org/1999/xlink">
    <title>Logo</title>
    <g id="Symbols" stroke="none" stroke-width="1" fill="none" fill-rule="evenodd">
        <g id="Header" transform="translate(-24.000000, -16.000000)" fill="#FFFFFF" fill-rule="nonzero">
            <g id="Logo" transform="translate(24.000000, 16.000000)">
                <path d="M43.29,21.018 L43.29,8.652 L41.814,8.652 L41.814,21.018 L43.29,21.018 Z M52.632,21.018 L52.632,10.02 L56.718,10.02 L56.718,8.652 L47.07,8.652 L47.07,10.02 L51.156,10.02 L51.156,21.018 L52.632,21.018 Z M60.84,12.414 C61.08,12.198 61.287,11.952 61.461,11.676 C61.635,11.4 61.752,11.118 61.812,10.83 C61.872,10.506 61.902,10.242 61.902,10.038 C61.902,9.882 61.878,9.648 61.83,9.336 L61.83,9.336 L61.812,9.174 C61.776,8.982 61.692,8.826 61.56,8.706 C61.428,8.586 61.272,8.526 61.092,8.526 C60.84,8.526 60.636,8.616 60.48,8.796 C60.324,8.976 60.264,9.186 60.3,9.426 L60.3,9.426 L60.336,9.606 C60.348,9.702 60.381,9.855 60.435,10.065 C60.489,10.275 60.516,10.476 60.516,10.668 C60.516,11.112 60.348,11.508 60.012,11.856 L60.012,11.856 L60.84,12.414 Z M69.786,21.378 C70.518,21.378 71.202,21.216 71.838,20.892 C72.474,20.568 72.981,20.112 73.359,19.524 C73.737,18.936 73.926,18.27 73.926,17.526 C73.926,16.782 73.719,16.152 73.305,15.636 C72.891,15.12 72.21,14.604 71.262,14.088 L71.262,14.088 L70.614,13.764 C70.062,13.488 69.612,13.245 69.264,13.035 C68.916,12.825 68.613,12.576 68.355,12.288 C68.097,12 67.968,11.676 67.968,11.316 C67.968,10.872 68.163,10.491 68.553,10.173 C68.943,9.855 69.402,9.696 69.93,9.696 C70.17,9.696 70.422,9.747 70.686,9.849 C70.95,9.951 71.157,10.089 71.307,10.263 C71.457,10.437 71.508,10.62 71.46,10.812 L71.46,10.812 L72.864,10.902 C72.888,10.758 72.9,10.656 72.9,10.596 C72.9,10.2 72.765,9.828 72.495,9.48 C72.225,9.132 71.865,8.853 71.415,8.643 C70.965,8.433 70.482,8.328 69.966,8.328 C69.354,8.328 68.781,8.457 68.247,8.715 C67.713,8.973 67.287,9.333 66.969,9.795 C66.651,10.257 66.492,10.782 66.492,11.37 C66.492,11.982 66.657,12.507 66.987,12.945 C67.317,13.383 67.731,13.749 68.229,14.043 C68.727,14.337 69.456,14.718 70.416,15.186 C71.172,15.546 71.7,15.894 72,16.23 C72.3,16.566 72.45,16.992 72.45,17.508 C72.45,18.252 72.192,18.855 71.676,19.317 C71.16,19.779 70.53,20.01 69.786,20.01 C69.09,20.01 68.436,19.794 67.824,19.362 C67.212,18.93 66.81,18.336 66.618,17.58 L66.618,17.58 L65.286,18.138 C65.418,18.762 65.703,19.32 66.141,19.812 C66.579,20.304 67.116,20.688 67.752,20.964 C68.388,21.24 69.066,21.378 69.786,21.378 Z M84.924,21.018 L86.58,17.04 L91.278,17.04 L92.97,21.018 L94.536,21.018 L89.226,8.31 L88.632,8.31 L83.358,21.018 L84.924,21.018 Z M90.702,15.708 L87.138,15.708 L88.65,11.856 L88.794,11.37 L88.92,10.974 L89.028,11.388 L89.172,11.856 L90.702,15.708 Z M102.852,21.306 C103.908,21.306 104.907,21.075 105.849,20.613 C106.791,20.151 107.544,19.464 108.108,18.552 L108.108,18.552 L106.902,17.724 C106.482,18.432 105.915,18.978 105.201,19.362 C104.487,19.746 103.71,19.938 102.87,19.938 C101.97,19.938 101.166,19.713 100.458,19.263 C99.75,18.813 99.195,18.21 98.793,17.454 C98.391,16.698 98.19,15.876 98.19,14.988 C98.19,14.064 98.4,13.191 98.82,12.369 C99.24,11.547 99.804,10.887 100.512,10.389 C101.22,9.891 101.994,9.642 102.834,9.642 C103.59,9.642 104.283,9.786 104.913,10.074 C105.543,10.362 105.84,10.884 105.804,11.64 L105.804,11.64 L107.226,11.64 C107.25,10.368 106.812,9.489 105.912,9.003 C105.012,8.517 104.016,8.274 102.924,8.274 C101.808,8.274 100.779,8.577 99.837,9.183 C98.895,9.789 98.145,10.602 97.587,11.622 C97.029,12.642 96.75,13.746 96.75,14.934 C96.75,16.098 97.014,17.166 97.542,18.138 C98.07,19.11 98.799,19.881 99.729,20.451 C100.659,21.021 101.7,21.306 102.852,21.306 Z M117,21.306 C118.056,21.306 119.055,21.075 119.997,20.613 C120.939,20.151 121.692,19.464 122.256,18.552 L122.256,18.552 L121.05,17.724 C120.63,18.432 120.063,18.978 119.349,19.362 C118.635,19.746 117.858,19.938 117.018,19.938 C116.118,19.938 115.314,19.713 114.606,19.263 C113.898,18.813 113.343,18.21 112.941,17.454 C112.539,16.698 112.338,15.876 112.338,14.988 C112.338,14.064 112.548,13.191 112.968,12.369 C113.388,11.547 113.952,10.887 114.66,10.389 C115.368,9.891 116.142,9.642 116.982,9.642 C117.738,9.642 118.431,9.786 119.061,10.074 C119.691,10.362 119.988,10.884 119.952,11.64 L119.952,11.64 L121.374,11.64 C121.398,10.368 120.96,9.489 120.06,9.003 C119.16,8.517 118.164,8.274 117.072,8.274 C115.956,8.274 114.927,8.577 113.985,9.183 C113.043,9.789 112.293,10.602 111.735,11.622 C111.177,12.642 110.898,13.746 110.898,14.934 C110.898,16.098 111.162,17.166 111.69,18.138 C112.218,19.11 112.947,19.881 113.877,20.451 C114.807,21.021 115.848,21.306 117,21.306 Z M134.154,21.18 C134.634,21.18 134.982,21.06 135.198,20.82 L135.198,20.82 L134.55,19.686 C134.442,19.794 134.316,19.848 134.172,19.848 C134.088,19.848 134.007,19.821 133.929,19.767 C133.851,19.713 133.758,19.62 133.65,19.488 C133.53,19.332 133.002,18.624 132.066,17.364 L132.066,17.364 L131.4,16.464 C131.208,16.224 131.031,16.053 130.869,15.951 C130.707,15.849 130.452,15.75 130.104,15.654 C130.776,15.654 131.256,15.612 131.544,15.528 C132.132,15.36 132.63,14.97 133.038,14.358 C133.446,13.746 133.65,13.056 133.65,12.288 C133.65,11.652 133.497,11.055 133.191,10.497 C132.885,9.939 132.465,9.492 131.931,9.156 C131.397,8.82 130.806,8.652 130.158,8.652 L130.158,8.652 L126.018,8.652 L126.018,21.018 L127.494,21.018 L127.494,10.02 L130.086,10.02 C130.698,10.02 131.199,10.248 131.589,10.704 C131.979,11.16 132.174,11.748 132.174,12.468 C132.174,13.188 131.97,13.755 131.562,14.169 C131.154,14.583 130.596,14.79 129.888,14.79 L129.888,14.79 L128.16,14.79 L128.16,16.176 C128.592,16.188 128.955,16.257 129.249,16.383 C129.543,16.509 129.777,16.662 129.951,16.842 C130.125,17.022 130.326,17.262 130.554,17.562 L130.554,17.562 L132.642,20.424 C133.026,20.928 133.53,21.18 134.154,21.18 Z M143.442,21.18 C144.39,21.18 145.236,20.97 145.98,20.55 C146.724,20.13 147.306,19.539 147.726,18.777 C148.146,18.015 148.356,17.136 148.356,16.14 L148.356,16.14 L148.356,8.652 L146.88,8.652 L146.88,16.14 C146.88,17.256 146.571,18.156 145.953,18.84 C145.335,19.524 144.51,19.866 143.478,19.866 C142.806,19.866 142.215,19.713 141.705,19.407 C141.195,19.101 140.796,18.666 140.508,18.102 C140.22,17.538 140.076,16.884 140.076,16.14 L140.076,16.14 L140.076,8.652 L138.6,8.652 L138.6,16.14 C138.6,17.088 138.798,17.946 139.194,18.714 C139.59,19.482 140.154,20.085 140.886,20.523 C141.618,20.961 142.47,21.18 143.442,21.18 Z M153.378,21.018 L155.034,17.04 L159.732,17.04 L161.424,21.018 L162.99,21.018 L157.68,8.31 L157.086,8.31 L151.812,21.018 L153.378,21.018 Z M159.156,15.708 L155.592,15.708 L157.104,11.856 L157.248,11.37 L157.374,10.974 L157.482,11.388 L157.626,11.856 L159.156,15.708 Z M174.258,21.018 L174.258,19.65 L168.192,19.65 L168.192,8.652 L166.716,8.652 L166.716,21.018 L174.258,21.018 Z M189.054,21.018 L192.258,11.154 L195.462,21.018 L196.794,21.018 L200.826,8.634 L199.35,8.634 L196.254,18.408 L196.146,19.2 L196.02,18.408 L192.924,8.634 L191.592,8.634 L188.514,18.408 L188.388,19.2 L188.28,18.408 L185.526,9.714 C185.466,9.534 185.379,9.363 185.265,9.201 C185.151,9.039 185.016,8.91 184.86,8.814 C184.74,8.742 184.578,8.676 184.374,8.616 C184.17,8.556 183.978,8.526 183.798,8.526 C183.702,8.526 183.63,8.532 183.582,8.544 L183.582,8.544 L183.582,9.912 C183.762,9.912 183.894,9.936 183.978,9.984 C184.062,10.032 184.134,10.14 184.194,10.308 L184.194,10.308 L187.722,21.018 L189.054,21.018 Z M209.556,21.396 C210.696,21.408 211.728,21.144 212.652,20.604 C213.576,20.064 214.305,19.314 214.839,18.354 C215.373,17.394 215.64,16.32 215.64,15.132 L215.64,15.132 L215.64,14.61 C215.64,13.47 215.364,12.423 214.812,11.469 C214.26,10.515 213.516,9.759 212.58,9.201 C211.644,8.643 210.612,8.364 209.484,8.364 C208.368,8.364 207.339,8.643 206.397,9.201 C205.455,9.759 204.711,10.515 204.165,11.469 C203.619,12.423 203.346,13.47 203.346,14.61 L203.346,14.61 L203.346,15.132 C203.346,16.32 203.613,17.385 204.147,18.327 C204.681,19.269 205.419,20.013 206.361,20.559 C207.303,21.105 208.368,21.384 209.556,21.396 Z M209.502,20.028 C208.626,20.028 207.831,19.815 207.117,19.389 C206.403,18.963 205.842,18.378 205.434,17.634 C205.026,16.89 204.822,16.056 204.822,15.132 L204.822,15.132 L204.822,14.61 C204.822,13.734 205.029,12.921 205.443,12.171 C205.857,11.421 206.418,10.827 207.126,10.389 C207.834,9.951 208.614,9.732 209.466,9.732 C210.33,9.732 211.119,9.951 211.833,10.389 C212.547,10.827 213.114,11.421 213.534,12.171 C213.954,12.921 214.164,13.734 214.164,14.61 L214.164,14.61 L214.164,15.132 C214.164,16.056 213.96,16.89 213.552,17.634 C213.144,18.378 212.586,18.963 211.878,19.389 C211.17,19.815 210.378,20.028 209.502,20.028 Z M227.97,21.18 C228.45,21.18 228.798,21.06 229.014,20.82 L229.014,20.82 L228.366,19.686 C228.258,19.794 228.132,19.848 227.988,19.848 C227.904,19.848 227.823,19.821 227.745,19.767 C227.667,19.713 227.574,19.62 227.466,19.488 C227.346,19.332 226.818,18.624 225.882,17.364 L225.882,17.364 L225.216,16.464 C225.024,16.224 224.847,16.053 224.685,15.951 C224.523,15.849 224.268,15.75 223.92,15.654 C224.592,15.654 225.072,15.612 225.36,15.528 C225.948,15.36 226.446,14.97 226.854,14.358 C227.262,13.746 227.466,13.056 227.466,12.288 C227.466,11.652 227.313,11.055 227.007,10.497 C226.701,9.939 226.281,9.492 225.747,9.156 C225.213,8.82 224.622,8.652 223.974,8.652 L223.974,8.652 L219.834,8.652 L219.834,21.018 L221.31,21.018 L221.31,10.02 L223.902,10.02 C224.514,10.02 225.015,10.248 225.405,10.704 C225.795,11.16 225.99,11.748 225.99,12.468 C225.99,13.188 225.786,13.755 225.378,14.169 C224.97,14.583 224.412,14.79 223.704,14.79 L223.704,14.79 L221.976,14.79 L221.976,16.176 C222.408,16.188 222.771,16.257 223.065,16.383 C223.359,16.509 223.593,16.662 223.767,16.842 C223.941,17.022 224.142,17.262 224.37,17.562 L224.37,17.562 L226.458,20.424 C226.842,20.928 227.346,21.18 227.97,21.18 Z M240.228,21.018 L240.228,19.65 L234.162,19.65 L234.162,8.652 L232.686,8.652 L232.686,21.018 L240.228,21.018 Z M248.274,21.18 C249.486,21.18 250.566,20.91 251.514,20.37 C252.462,19.83 253.203,19.08 253.737,18.12 C254.271,17.16 254.538,16.068 254.538,14.844 C254.538,13.692 254.298,12.651 253.818,11.721 C253.338,10.791 252.663,10.05 251.793,9.498 C250.923,8.946 249.93,8.634 248.814,8.562 L248.814,8.562 L244.008,8.544 L244.008,20.982 L245.016,21.072 C245.844,21.144 246.42,21.18 246.744,21.18 L246.744,21.18 L248.274,21.18 Z M247.698,19.83 C247.038,19.83 246.3,19.8 245.484,19.74 L245.484,19.74 L245.484,9.93 L248.616,9.93 C250.008,10.002 251.097,10.476 251.883,11.352 C252.669,12.228 253.062,13.41 253.062,14.898 C253.062,16.482 252.6,17.7 251.676,18.552 C250.752,19.404 249.426,19.83 247.698,19.83 Z" id="IT’SACCRUALWORLD"></path>
                <g id="logomark">
                    <path d="M14.8404255,1.82712766 C15.0825351,1.82712766 15.2796686,2.01969307 15.2870214,2.26001924 L15.287234,2.27393617 L15.287234,7.31190472 C15.287234,7.43528748 15.1872126,7.53530897 15.0638298,7.53530897 C14.9441859,7.53530897 14.8465089,7.44125754 14.8406989,7.32305485 L14.8404255,7.31190472 L14.8404255,2.27393617 L6.29521277,2.27393617 L6.29521277,14.7983492 C6.29521277,14.921732 6.19519127,15.0217535 6.07180851,15.0217535 C5.95216462,15.0217535 5.85448762,14.927702 5.84867766,14.8094993 L5.84840426,14.7983492 L5.84840426,2.27393617 C5.84840426,2.0318266 6.04096966,1.83469308 6.28129584,1.82734027 L6.29521277,1.82712766 L14.8404255,1.82712766 Z" id="Path"></path>
                    <path d="M27.5744681,0.0957446809 C27.8165777,0.0957446809 28.0137112,0.288310088 28.021064,0.528636261 L28.0212766,0.542553191 L28.0212766,19.4202128 C28.0212766,19.5435955 27.9212551,19.643617 27.7978723,19.643617 C27.6782284,19.643617 27.5805514,19.5495656 27.5747415,19.4313629 L27.5744681,19.4202128 L27.5744681,0.542553191 L19.0292553,0.542553191 L19.0292553,9.25748765 C19.0292553,9.38087041 18.9292338,9.4808919 18.8058511,9.4808919 C18.6862072,9.4808919 18.5885302,9.38684047 18.5827202,9.26863777 L18.5824468,9.25748765 L18.5824468,0.542553191 C18.5824468,0.300443618 18.7750122,0.103310106 19.0153384,0.0959572961 L19.0292553,0.0957446809 L27.5744681,0.0957446809 Z" id="Path"></path>
                    <path d="M29.9202128,19.1968085 C30.0040861,19.1968085 30.0850814,19.2088346 30.1521811,19.2323895 C30.2703743,19.2738805 30.3608169,19.3470574 30.366715,19.4842187 L30.3670213,19.4986374 L30.3670213,29.7526596 C30.3670213,29.8760423 30.2669998,29.9760638 30.143617,29.9760638 C30.0239731,29.9760638 29.9262961,29.8820124 29.9204862,29.7638097 L29.9202128,29.7526596 L29.9202128,19.643617 L21.375,19.643617 L21.375,29.7526596 C21.375,29.8723035 21.2809486,29.9699805 21.1627459,29.9757904 L21.1515957,29.9760638 C21.0319519,29.9760638 20.9342749,29.8820124 20.9284649,29.7638097 L20.9281915,29.7526596 L20.9281915,19.4986374 C20.9281915,19.3521418 21.0207628,19.2753112 21.1430317,19.2323895 C21.2034214,19.2111901 21.2750665,19.199329 21.3499354,19.1971688 L21.375,19.1968085 L29.9202128,19.1968085 Z" id="Path"></path>
                    <path d="M31.5427181,29.6859682 C31.6661009,29.6859682 31.7661224,29.7859897 31.7661224,29.9093724 C31.7661224,30.0290163 31.6720709,30.1266933 31.5538682,30.1325033 L31.5427181,30.1327767 L2.83676267,30.1327767 C2.71337991,30.1327767 2.61335842,30.0327552 2.61335842,29.9093724 C2.61335842,29.7897285 2.70740985,29.6920515 2.82561255,29.6862416 L2.83676267,29.6859682 L31.5427181,29.6859682 Z" id="Path-2"></path>
                    <path d="M12.6487002,6.00216634 C12.7123658,6.00216634 12.7752211,6.01577137 12.83308,6.0419835 L12.8502836,6.05022436 L21.1177059,10.2297191 C21.2634067,10.3033764 21.3569502,10.4503818 21.3626544,10.6127141 L21.362931,10.6284696 L21.362931,29.9102893 C21.362931,30.0336721 21.2629095,30.1336936 21.1395267,30.1336936 C21.0198828,30.1336936 20.9222058,30.0396421 20.9163959,29.9214394 L20.9161225,29.9102893 L20.9161225,10.6284696 L12.6487002,6.44897485 L12.6487002,29.9102893 C12.6487002,30.0336721 12.5486787,30.1336936 12.4252959,30.1336936 C12.305652,30.1336936 12.207975,30.0396421 12.2021651,29.9214394 L12.2018917,29.9102893 L12.2018917,6.44897485 C12.2018917,6.20220933 12.4019347,6.00216634 12.6487002,6.00216634 Z" id="Path-3"></path>
                    <path d="M4.14494681,13.025266 C3.07213883,13.025266 2.07468272,14.2721945 1.2446225,16.2925644 L1.20426976,16.3918007 C1.18421821,16.4416215 1.16435549,16.4917389 1.14468884,16.5421197 L1.10561911,16.6432228 L1.06708507,16.7449695 L1.02909957,16.8473007 L0.991675472,16.9501577 L0.95482562,17.0534813 C0.948732547,17.0707375 0.942663935,17.0880108 0.936620054,17.1052997 L0.900655672,17.2092129 C0.888767894,17.2439071 0.876981179,17.2786546 0.865297669,17.3134454 L0.830558894,17.4179383 C0.824821415,17.4353722 0.819110272,17.4528144 0.813425734,17.4702639 L0.7796399,17.5750368 C0.762908752,17.6274564 0.746421864,17.6799184 0.730186464,17.7323896 L0.698053124,17.8373344 L0.666603272,17.9422449 C0.661419301,17.9597238 0.656264345,17.9771988 0.65113867,17.9946688 L0.620738147,18.0994171 L0.59105324,18.2039837 L0.562096803,18.3083095 L0.533881686,18.4123357 L0.506420742,18.5160032 C0.501907479,18.533248 0.497426176,18.5504753 0.4929771,18.5676841 L0.46667151,18.6707031 L0.441152222,18.7732162 L0.416432087,18.8751643 C0.408326663,18.9090463 0.400356572,18.9428243 0.392523957,18.9764885 L0.369440684,19.0771298 C0.365662923,19.0938432 0.361920068,19.1105256 0.358212384,19.127176 L0.336390492,19.2266825 C0.332824569,19.2431993 0.329294353,19.2596816 0.325800113,19.276128 L0.305268519,19.3743671 C0.281823647,19.4884548 0.260167813,19.6006669 0.240392853,19.7105822 L0.223905651,19.8042229 C0.178509145,20.0678889 0.144360711,20.317298 0.122775772,20.5464163 L0.115681369,20.6264292 C0.102544464,20.7847306 0.0957446809,20.9325681 0.0957446809,21.0678191 C0.0957446809,23.273286 1.88362885,25.0611702 4.08909574,25.0611702 C6.29456264,25.0611702 8.08244681,23.273286 8.08244681,21.0678191 C8.08244681,20.9428661 8.07703812,20.8074429 8.06655236,20.6631886 L8.06033134,20.5836385 C8.05473089,20.5166333 8.04809391,20.4478651 8.04045156,20.3774877 L8.03080014,20.2922723 C8.02573514,20.2492883 8.02031268,20.2057472 8.0145395,20.1616821 L8.0025275,20.0728635 C7.9858933,19.9535335 7.96679695,19.8306359 7.94536603,19.704801 L7.92885709,19.609884 C7.92603331,19.593976 7.92317355,19.5780245 7.92027806,19.5620309 L7.90247834,19.4655725 C7.89944093,19.449415 7.89636828,19.4332178 7.89326065,19.416982 L7.87419707,19.3191153 C7.86770394,19.2863456 7.86107287,19.2534317 7.85430585,19.2203835 L7.83359897,19.1208458 L7.81208837,19.0205613 C7.80843696,19.0037882 7.80475256,18.9869866 7.80103541,18.9701574 L7.77834167,18.8688635 L7.75487412,18.7669706 L7.73064471,18.6645377 C7.72654365,18.6474238 7.72241135,18.6302899 7.71824805,18.6131372 L7.69289828,18.5100052 L7.66681656,18.4064811 L7.64001484,18.3026239 L7.61250509,18.1984927 C7.60786179,18.1811179 7.60318949,18.1637343 7.59848843,18.1463428 L7.56993905,18.0419115 L7.54071152,17.9373541 L7.51081782,17.8327295 C7.50578068,17.8152897 7.50071629,17.7978497 7.49562489,17.7804105 L7.46475434,17.6757961 L7.43324751,17.5712624 L7.40111636,17.4668685 C7.39570981,17.4494845 7.39027774,17.4321087 7.38482041,17.4147425 L7.3517752,17.3106691 L7.31813557,17.2068832 C7.31248009,17.1896128 7.30680035,17.1723569 7.30109658,17.1551166 L7.26658774,17.0518729 L7.23151438,16.9490646 L7.19588845,16.8467506 L7.15972192,16.7449902 C7.10507264,16.5927944 7.04863919,16.4426661 6.99060319,16.2955033 C6.1919863,14.2704371 5.21879701,13.025266 4.14494681,13.025266 Z M4.14494681,13.4720745 C4.96072422,13.4720745 5.84102353,14.5983952 6.57494927,16.459423 C6.59997634,16.5228845 6.62469834,16.5869237 6.64909964,16.6514616 L6.68545911,16.7486325 C6.69147828,16.7648867 6.69747692,16.7811695 6.70345478,16.7974799 L6.73907068,16.8956617 C6.74496446,16.9120769 6.75083698,16.9285172 6.75668798,16.9449812 L6.79153392,17.0440406 L6.8258519,17.1436109 C6.83152691,17.1602453 6.83717944,17.1768985 6.84280924,17.1935692 L6.87631327,17.293795 L6.90926002,17.3943836 L6.94163775,17.4952759 C6.94698597,17.5121133 6.95230999,17.5289609 6.95760957,17.5458174 L6.98911178,17.647054 C6.99431262,17.6639414 6.99948852,17.6808352 7.00463925,17.6977343 L7.03523956,17.799182 L7.06522393,17.9006963 C7.07016935,17.9176176 7.07508862,17.9345392 7.07998148,17.9514599 L7.10901997,18.0529631 L7.13741321,18.1543848 C7.14676877,18.1881719 7.15601484,18.2219355 7.16514946,18.2556658 L7.192217,18.3567468 L7.2186041,18.4575686 L7.24429903,18.5580719 L7.26929007,18.6581976 L7.29356548,18.7578862 L7.31711354,18.8570786 L7.33992251,18.9557156 L7.36198067,19.0537379 L7.38327629,19.1510862 L7.40379764,19.2477014 C7.41050775,19.2797776 7.41708685,19.3117218 7.423533,19.3435241 L7.44247062,19.4384951 C7.44555976,19.4542493 7.44861518,19.4699656 7.45163662,19.4856427 L7.46935567,19.5792251 L7.48624766,19.6718076 L7.50230088,19.7633311 C7.50490587,19.7784935 7.50747542,19.7936093 7.51000928,19.8086772 L7.52478235,19.8985011 L7.53868731,19.9871177 L7.55171244,20.074468 L7.56384602,20.1604925 C7.56579334,20.1747162 7.56770301,20.1888821 7.56957481,20.2029892 L7.58034906,20.2869141 C7.58722624,20.3423794 7.5934895,20.3968622 7.5991232,20.4502835 L7.60709963,20.5296094 C7.60834969,20.5426944 7.60955992,20.5557105 7.61073006,20.5686567 L7.61726799,20.645483 C7.62231221,20.7087881 7.62634221,20.7702802 7.62932743,20.8298051 L7.63240625,20.9002808 L7.63447036,20.9688088 C7.63524679,21.002576 7.6356383,21.0355906 7.6356383,21.0678191 C7.6356383,23.0265205 6.04779711,24.6143617 4.08909574,24.6143617 C2.13039438,24.6143617 0.542553191,23.0265205 0.542553191,21.0678191 C0.542553191,20.8128481 0.5690021,20.5069835 0.618275397,20.167262 L0.631067131,20.0816361 C0.633277639,20.0672509 0.635527249,20.0528093 0.637815697,20.0383126 L0.652010359,19.9506816 L0.667124574,19.8617878 C0.669719541,19.8468702 0.672352297,19.8319024 0.675022582,19.8168858 L0.69149253,19.7262086 L0.708850569,19.6344165 C0.714783198,19.6036399 0.720861746,19.5726873 0.727084113,19.5415686 L0.746180577,19.4477241 C0.749434532,19.4320036 0.752723918,19.416244 0.756048472,19.4004466 L0.776415719,19.305218 L0.797614424,19.2091407 L0.819632002,19.1122739 C0.827106275,19.0798599 0.834714928,19.0473242 0.842455866,19.0146765 L0.866073433,18.916408 L0.890472116,18.8175272 L0.915639331,18.7180936 C0.919897212,18.7014785 0.924186591,18.6848428 0.928507205,18.6681878 L0.95480362,18.5680356 C0.959248128,18.5513082 0.963723347,18.5345639 0.968229015,18.5178039 L0.995626315,18.4170662 L1.02374181,18.3160122 L1.0525629,18.214701 L1.08207702,18.1131917 C1.08705309,18.0962603 1.09205752,18.0793231 1.09709003,18.0623813 L1.12762008,17.9606859 L1.15881169,17.8589403 C1.16406472,17.8419818 1.16934479,17.8250237 1.17465165,17.8080672 L1.206812,17.7063573 C1.21763783,17.672467 1.22856867,17.6385929 1.23960244,17.6047451 L1.2730104,17.5032898 C1.2842479,17.4695041 1.29558623,17.4357544 1.30702328,17.4020505 L1.34162849,17.3010864 C1.34744469,17.2842853 1.35328505,17.2674981 1.3591493,17.2507261 L1.39461943,17.1502857 C1.41845454,17.0834599 1.44266357,17.0169162 1.46722974,16.9507333 L1.50434475,16.8517397 C1.51057453,16.8352891 1.5168261,16.8188636 1.52309921,16.8024643 L1.56099418,16.7043936 C1.59278517,16.622947 1.62510142,16.5422184 1.65791015,16.4623618 C2.42176627,14.603133 3.3265344,13.4720745 4.14494681,13.4720745 Z" id="Oval"></path>
                    <polygon id="Line" points="4.3125 24.6422872 4.3125 30.1156915 3.86569149 30.1156915 3.86569149 24.6422872"></polygon>
                    <polygon id="Line" points="6.3231383 24.6422872 6.3231383 30.1156915 5.87632979 30.1156915 5.87632979 24.6422872"></polygon>
                    <path d="M15.7340426,10.0930851 L14.4494681,10.0930851 C14.2027026,10.0930851 14.0026596,10.2931281 14.0026596,10.5398936 L14.0026596,28.3005319 C14.0026596,28.5472974 14.2027026,28.7473404 14.4494681,28.7473404 L15.7340426,28.7473404 C15.9808081,28.7473404 16.1808511,28.5472974 16.1808511,28.3005319 L16.1808511,10.5398936 C16.1808511,10.2931281 15.9808081,10.0930851 15.7340426,10.0930851 Z M14.4494681,10.5398936 L15.7340426,10.5398936 L15.7340426,28.3005319 L14.4494681,28.3005319 L14.4494681,10.5398936 Z" id="Rectangle"></path>
                    <path d="M19.1409574,11.9361702 L17.856383,11.9361702 C17.6096175,11.9361702 17.4095745,12.1362132 17.4095745,12.3829787 L17.4095745,28.3005319 C17.4095745,28.5472974 17.6096175,28.7473404 17.856383,28.7473404 L19.1409574,28.7473404 C19.387723,28.7473404 19.587766,28.5472974 19.587766,28.3005319 L19.587766,12.3829787 C19.587766,12.1362132 19.387723,11.9361702 19.1409574,11.9361702 Z M17.856383,12.3829787 L19.1409574,12.3829787 L19.1409574,28.3005319 L17.856383,28.3005319 L17.856383,12.3829787 Z" id="Rectangle"></path>
                    <path d="M25.6268376,21.9766758 C26.9100492,21.9766758 27.8102171,22.6671281 28.2936434,24.0086424 C28.6155705,24.9019943 28.7572226,26.0908143 28.7210925,27.5775389 L28.7175027,27.7075702 C28.7148108,27.7947584 28.7115218,27.882948 28.707636,27.9721394 L28.7013598,28.1066781 C28.697998,28.1743231 28.6943007,28.2425319 28.690268,28.3113045 L28.6817557,28.4496017 C28.677276,28.5191263 28.6724612,28.5892148 28.6673113,28.6598676 L28.6565651,28.8019256 C28.6509688,28.8733307 28.6450375,28.9453003 28.6387717,29.0178343 L28.6257939,29.1636552 C28.6168446,29.2613711 28.6073007,29.3600908 28.5971626,29.4598149 L28.5815098,29.6101544 C28.5788268,29.6353365 28.5761066,29.6605814 28.5733493,29.6858891 L28.5649661,29.7620007 L28.1209011,29.7125628 L28.1290806,29.6383072 L28.1447894,29.4909268 C28.154973,29.3931759 28.1645788,29.2964305 28.1736074,29.200691 L28.1867174,29.0578363 L28.1989618,28.9164907 C28.2068363,28.8227636 28.214134,28.7300428 28.2208554,28.6383289 L28.2305053,28.5015132 L28.2392912,28.3662082 C28.2434682,28.2989334 28.2473212,28.2322253 28.2508506,28.166084 L28.2574779,28.0345572 L28.2632423,27.9045423 C28.2667977,27.8183698 28.2697781,27.7332055 28.2721841,27.6490498 L28.2753623,27.5235728 C28.3064996,26.110075 28.1716819,24.9881462 27.873295,24.1601186 C27.451356,22.9892324 26.7137695,22.4234844 25.6268376,22.4234844 C24.5399058,22.4234844 23.8023193,22.9892324 23.3803803,24.1601186 C23.0819934,24.9881462 22.9471757,26.110075 22.978313,27.5235728 L22.9814912,27.6490498 L22.9855311,27.7760397 L22.990433,27.9045423 C22.9913219,27.9260855 22.9922467,27.9476916 22.9932074,27.9693608 L22.9994032,28.1001316 C23.0049259,28.2097373 23.0113475,28.3209177 23.018669,28.4336718 L23.0278869,28.5697322 C23.0294952,28.5925348 23.0311395,28.6154004 23.0328199,28.6383289 L23.0433343,28.7766548 L23.0547135,28.9164907 C23.0566822,28.9399225 23.0586868,28.9634172 23.0607276,28.9869748 L23.0734047,29.129075 C23.0755897,29.1528841 23.0778107,29.1767561 23.0800679,29.200691 L23.0940437,29.3450547 L23.1088859,29.4909268 C23.1114318,29.5153645 23.1140138,29.5398651 23.1166319,29.5644285 L23.1327742,29.7125628 L22.6887091,29.7620007 C22.6773831,29.6602674 22.6666509,29.559539 22.6565127,29.4598149 L22.6417513,29.310982 C22.6345934,29.2369421 22.6277699,29.163467 22.621281,29.0905566 L22.6087493,28.9454884 C22.6027066,28.8733307 22.5969985,28.8017375 22.5916254,28.7307085 L22.5813258,28.5894029 C22.5763993,28.5191262 22.5718079,28.4494137 22.5675517,28.3802651 L22.5594864,28.2427199 C22.5544076,28.1515242 22.5499251,28.0613309 22.5460393,27.9721394 L22.5406582,27.8391036 C22.480635,26.2296415 22.6194423,24.9537828 22.9600319,24.0086424 C23.4434582,22.6671281 24.3436261,21.9766758 25.6268376,21.9766758 Z" id="Path"></path>
                    <path d="M20.7044282,1.80800185 C20.8240721,1.80800185 20.9217491,1.90205328 20.927559,2.02025598 L20.9278324,2.0314061 L20.9278324,4.24696635 C20.9278324,4.37034912 20.8278109,4.47037061 20.7044282,4.47037061 C20.5847843,4.47037061 20.4871073,4.37631918 20.4812973,4.25811648 L20.4810239,4.24696635 L20.4810239,2.0314061 C20.4810239,1.90802334 20.5810454,1.80800185 20.7044282,1.80800185 Z" id="Path-4"></path>
                    <path d="M7.97038561,3.65108696 C8.0900295,3.65108696 8.18770651,3.74513839 8.19351646,3.86334109 L8.19378987,3.87449121 L8.19378987,6.09005146 C8.19378987,6.21343422 8.09376837,6.31345571 7.97038561,6.31345571 C7.85074172,6.31345571 7.75306472,6.21940428 7.74725476,6.10120158 L7.74698136,6.09005146 L7.74698136,3.87449121 C7.74698136,3.75110845 7.84700285,3.65108696 7.97038561,3.65108696 Z" id="Path-4"></path>
                    <path d="M7.97038561,7.72821462 C8.0900295,7.72821462 8.18770651,7.82226605 8.19351646,7.94046874 L8.19378987,7.95161887 L8.19378987,10.1671791 C8.19378987,10.2905619 8.09376837,10.3905834 7.97038561,10.3905834 C7.85074172,10.3905834 7.75306472,10.2965319 7.74725476,10.1783292 L7.74698136,10.1671791 L7.74698136,7.95161887 C7.74698136,7.82823611 7.84700285,7.72821462 7.97038561,7.72821462 Z" id="Path-4"></path>
                    <path d="M7.97038561,11.8053423 C8.0900295,11.8053423 8.18770651,11.8993937 8.19351646,12.0175964 L8.19378987,12.0287465 L8.19378987,14.2443068 C8.19378987,14.3676895 8.09376837,14.467711 7.97038561,14.467711 C7.85074172,14.467711 7.75306472,14.3736596 7.74725476,14.2554569 L7.74698136,14.2443068 L7.74698136,12.0287465 C7.74698136,11.9053638 7.84700285,11.8053423 7.97038561,11.8053423 Z" id="Path-4"></path>
                    <path d="M7.97038561,15.8824699 C8.0900295,15.8824699 8.18770651,15.9765214 8.19351646,16.0947241 L8.19378987,16.1058742 L8.19378987,18.3214344 C8.19378987,18.4448172 8.09376837,18.5448387 7.97038561,18.5448387 C7.85074172,18.5448387 7.75306472,18.4507873 7.74725476,18.3325846 L7.74698136,18.3214344 L7.74698136,16.1058742 C7.74698136,15.9824914 7.84700285,15.8824699 7.97038561,15.8824699 Z" id="Path-4"></path>
                    <path d="M7.97038561,19.9595976 C8.0900295,19.9595976 8.18770651,20.053649 8.19351646,20.1718517 L8.19378987,20.1830018 L8.19378987,22.3985621 C8.19378987,22.5219449 8.09376837,22.6219664 7.97038561,22.6219664 C7.85074172,22.6219664 7.75306472,22.5279149 7.74725476,22.4097122 L7.74698136,22.3985621 L7.74698136,20.1830018 C7.74698136,20.0596191 7.84700285,19.9595976 7.97038561,19.9595976 Z" id="Path-4"></path>
                    <path d="M7.97038561,24.0367253 C8.0900295,24.0367253 8.18770651,24.1307767 8.19351646,24.2489794 L8.19378987,24.2601295 L8.19378987,26.4756898 C8.19378987,26.5990725 8.09376837,26.699094 7.97038561,26.699094 C7.85074172,26.699094 7.75306472,26.6050426 7.74725476,26.4868399 L7.74698136,26.4756898 L7.74698136,24.2601295 C7.74698136,24.1367467 7.84700285,24.0367253 7.97038561,24.0367253 Z" id="Path-4"></path>
                    <path d="M7.97038561,28.1138529 C8.0900295,28.1138529 8.18770651,28.2079043 8.19351646,28.326107 L8.19378987,28.3372572 L8.19378987,29.901087 C8.19378987,30.0244697 8.09376837,30.1244912 7.97038561,30.1244912 C7.85074172,30.1244912 7.75306472,30.0304398 7.74725476,29.9122371 L7.74698136,29.901087 L7.74698136,28.3372572 C7.74698136,28.2138744 7.84700285,28.1138529 7.97038561,28.1138529 Z" id="Path-4"></path>
                    <path d="M20.7044282,5.88512951 C20.8240721,5.88512951 20.9217491,5.97918094 20.927559,6.09738364 L20.9278324,6.10853376 L20.9278324,8.32409401 C20.9278324,8.44747678 20.8278109,8.54749827 20.7044282,8.54749827 C20.5847843,8.54749827 20.4871073,8.45344684 20.4812973,8.33524414 L20.4810239,8.32409401 L20.4810239,6.10853376 C20.4810239,5.985151 20.5810454,5.88512951 20.7044282,5.88512951 Z" id="Path-4"></path>
                    <path d="M23.3018617,1.80800185 C23.4215056,1.80800185 23.5191826,1.90205328 23.5249925,2.02025598 L23.525266,2.0314061 L23.525266,4.24696635 C23.525266,4.37034912 23.4252445,4.47037061 23.3018617,4.47037061 C23.1822178,4.47037061 23.0845408,4.37631918 23.0787309,4.25811648 L23.0784574,4.24696635 L23.0784574,2.0314061 C23.0784574,1.90802334 23.1784789,1.80800185 23.3018617,1.80800185 Z" id="Path-4"></path>
                    <path d="M10.5678191,3.65108696 C10.687463,3.65108696 10.78514,3.74513839 10.79095,3.86334109 L10.7912234,3.87449121 L10.7912234,6.09005146 C10.7912234,6.21343422 10.6912019,6.31345571 10.5678191,6.31345571 C10.4481753,6.31345571 10.3504983,6.21940428 10.3446883,6.10120158 L10.3444149,6.09005146 L10.3444149,3.87449121 C10.3444149,3.75110845 10.4444364,3.65108696 10.5678191,3.65108696 Z" id="Path-4"></path>
                    <path d="M10.5678191,7.72821462 C10.687463,7.72821462 10.78514,7.82226605 10.79095,7.94046874 L10.7912234,7.95161887 L10.7912234,10.1671791 C10.7912234,10.2905619 10.6912019,10.3905834 10.5678191,10.3905834 C10.4481753,10.3905834 10.3504983,10.2965319 10.3446883,10.1783292 L10.3444149,10.1671791 L10.3444149,7.95161887 C10.3444149,7.82823611 10.4444364,7.72821462 10.5678191,7.72821462 Z" id="Path-4"></path>
                    <path d="M10.5678191,11.8053423 C10.687463,11.8053423 10.78514,11.8993937 10.79095,12.0175964 L10.7912234,12.0287465 L10.7912234,14.2443068 C10.7912234,14.3676895 10.6912019,14.467711 10.5678191,14.467711 C10.4481753,14.467711 10.3504983,14.3736596 10.3446883,14.2554569 L10.3444149,14.2443068 L10.3444149,12.0287465 C10.3444149,11.9053638 10.4444364,11.8053423 10.5678191,11.8053423 Z" id="Path-4"></path>
                    <path d="M10.5678191,15.8824699 C10.687463,15.8824699 10.78514,15.9765214 10.79095,16.0947241 L10.7912234,16.1058742 L10.7912234,18.3214344 C10.7912234,18.4448172 10.6912019,18.5448387 10.5678191,18.5448387 C10.4481753,18.5448387 10.3504983,18.4507873 10.3446883,18.3325846 L10.3444149,18.3214344 L10.3444149,16.1058742 C10.3444149,15.9824914 10.4444364,15.8824699 10.5678191,15.8824699 Z" id="Path-4"></path>
                    <path d="M10.5678191,19.9595976 C10.687463,19.9595976 10.78514,20.053649 10.79095,20.1718517 L10.7912234,20.1830018 L10.7912234,22.3985621 C10.7912234,22.5219449 10.6912019,22.6219664 10.5678191,22.6219664 C10.4481753,22.6219664 10.3504983,22.5279149 10.3446883,22.4097122 L10.3444149,22.3985621 L10.3444149,20.1830018 C10.3444149,20.0596191 10.4444364,19.9595976 10.5678191,19.9595976 Z" id="Path-4"></path>
                    <path d="M10.5678191,24.0367253 C10.687463,24.0367253 10.78514,24.1307767 10.79095,24.2489794 L10.7912234,24.2601295 L10.7912234,26.4756898 C10.7912234,26.5990725 10.6912019,26.699094 10.5678191,26.699094 C10.4481753,26.699094 10.3504983,26.6050426 10.3446883,26.4868399 L10.3444149,26.4756898 L10.3444149,24.2601295 C10.3444149,24.1367467 10.4444364,24.0367253 10.5678191,24.0367253 Z" id="Path-4"></path>
                    <path d="M10.5678191,28.1138529 C10.687463,28.1138529 10.78514,28.2079043 10.79095,28.326107 L10.7912234,28.3372572 L10.7912234,29.901087 C10.7912234,30.0244697 10.6912019,30.1244912 10.5678191,30.1244912 C10.4481753,30.1244912 10.3504983,30.0304398 10.3446883,29.9122371 L10.3444149,29.901087 L10.3444149,28.3372572 C10.3444149,28.2138744 10.4444364,28.1138529 10.5678191,28.1138529 Z" id="Path-4"></path>
                    <path d="M23.3018617,5.88512951 C23.4215056,5.88512951 23.5191826,5.97918094 23.5249925,6.09738364 L23.525266,6.10853376 L23.525266,8.32409401 C23.525266,8.44747678 23.4252445,8.54749827 23.3018617,8.54749827 C23.1822178,8.54749827 23.0845408,8.45344684 23.0787309,8.33524414 L23.0784574,8.32409401 L23.0784574,6.10853376 C23.0784574,5.985151 23.1784789,5.88512951 23.3018617,5.88512951 Z" id="Path-4"></path>
                    <path d="M23.3018617,9.96225717 C23.4215056,9.96225717 23.5191826,10.0563086 23.5249925,10.1745113 L23.525266,10.1856614 L23.525266,12.4012217 C23.525266,12.5246044 23.4252445,12.6246259 23.3018617,12.6246259 C23.1822178,12.6246259 23.0845408,12.5305745 23.0787309,12.4123718 L23.0784574,12.4012217 L23.0784574,10.1856614 C23.0784574,10.0622787 23.1784789,9.96225717 23.3018617,9.96225717 Z" id="Path-4"></path>
                    <path d="M23.3018617,14.0393848 C23.4215056,14.0393848 23.5191826,14.1334363 23.5249925,14.251639 L23.525266,14.2627891 L23.525266,16.4783493 C23.525266,16.6017321 23.4252445,16.7017536 23.3018617,16.7017536 C23.1822178,16.7017536 23.0845408,16.6077022 23.0787309,16.4894995 L23.0784574,16.4783493 L23.0784574,14.2627891 C23.0784574,14.1394063 23.1784789,14.0393848 23.3018617,14.0393848 Z" id="Path-4"></path>
                    <path d="M23.3018617,17.8931082 C23.4215056,17.8931082 23.5191826,17.9871597 23.5249925,18.1053624 L23.525266,18.1165125 L23.525266,19.401087 C23.525266,19.5244697 23.4252445,19.6244912 23.3018617,19.6244912 C23.1822178,19.6244912 23.0845408,19.5304398 23.0787309,19.4122371 L23.0784574,19.401087 L23.0784574,18.1165125 C23.0784574,17.9931297 23.1784789,17.8931082 23.3018617,17.8931082 Z" id="Path-4"></path>
                    <path d="M25.9268617,1.80800185 C26.0465056,1.80800185 26.1441826,1.90205328 26.1499925,2.02025598 L26.150266,2.0314061 L26.150266,4.24696635 C26.150266,4.37034912 26.0502445,4.47037061 25.9268617,4.47037061 C25.8072178,4.47037061 25.7095408,4.37631918 25.7037309,4.25811648 L25.7034574,4.24696635 L25.7034574,2.0314061 C25.7034574,1.90802334 25.8034789,1.80800185 25.9268617,1.80800185 Z" id="Path-4"></path>
                    <path d="M13.1928191,3.65108696 C13.312463,3.65108696 13.41014,3.74513839 13.41595,3.86334109 L13.4162234,3.87449121 L13.4162234,6.09005146 C13.4162234,6.21343422 13.3162019,6.31345571 13.1928191,6.31345571 C13.0731753,6.31345571 12.9754983,6.21940428 12.9696883,6.10120158 L12.9694149,6.09005146 L12.9694149,3.87449121 C12.9694149,3.75110845 13.0694364,3.65108696 13.1928191,3.65108696 Z" id="Path-4"></path>
                    <path d="M25.9268617,5.88512951 C26.0465056,5.88512951 26.1441826,5.97918094 26.1499925,6.09738364 L26.150266,6.10853376 L26.150266,8.32409401 C26.150266,8.44747678 26.0502445,8.54749827 25.9268617,8.54749827 C25.8072178,8.54749827 25.7095408,8.45344684 25.7037309,8.33524414 L25.7034574,8.32409401 L25.7034574,6.10853376 C25.7034574,5.985151 25.8034789,5.88512951 25.9268617,5.88512951 Z" id="Path-4"></path>
                    <path d="M25.9268617,9.96225717 C26.0465056,9.96225717 26.1441826,10.0563086 26.1499925,10.1745113 L26.150266,10.1856614 L26.150266,12.4012217 C26.150266,12.5246044 26.0502445,12.6246259 25.9268617,12.6246259 C25.8072178,12.6246259 25.7095408,12.5305745 25.7037309,12.4123718 L25.7034574,12.4012217 L25.7034574,10.1856614 C25.7034574,10.0622787 25.8034789,9.96225717 25.9268617,9.96225717 Z" id="Path-4"></path>
                    <path d="M25.9268617,14.0393848 C26.0465056,14.0393848 26.1441826,14.1334363 26.1499925,14.251639 L26.150266,14.2627891 L26.150266,16.4783493 C26.150266,16.6017321 26.0502445,16.7017536 25.9268617,16.7017536 C25.8072178,16.7017536 25.7095408,16.6077022 25.7037309,16.4894995 L25.7034574,16.4783493 L25.7034574,14.2627891 C25.7034574,14.1394063 25.8034789,14.0393848 25.9268617,14.0393848 Z" id="Path-4"></path>
                    <path d="M25.9268617,17.8931082 C26.0465056,17.8931082 26.1441826,17.9871597 26.1499925,18.1053624 L26.150266,18.1165125 L26.150266,19.401087 C26.150266,19.5244697 26.0502445,19.6244912 25.9268617,19.6244912 C25.8072178,19.6244912 25.7095408,19.5304398 25.7037309,19.4122371 L25.7034574,19.401087 L25.7034574,18.1165125 C25.7034574,17.9931297 25.8034789,17.8931082 25.9268617,17.8931082 Z" id="Path-4"></path>
                </g>
            </g>
        </g>
    </g>
</svg>